<svg xmlns="http://www.w3.org/2000/svg" xmlns:xlink="http://www.w3.org/1999/xlink" width="300" height="300" viewBox="0 0 300 300"><defs><clipPath id="clip-path"><path d="M275,164a125,125,0,0,1-250,0C25,95,81-51,150-51S275,95,275,164Z" fill="none"/></clipPath><clipPath id="clip-path-2"/></defs><title>customer-female-2</title><g id="Background"><rect width="300" height="300" fill="#fff"/><circle cx="150" cy="164" r="125" fill="#ffefcc"/></g><g id="Customers"><g clip-path="url(#clip-path)"><g id="Woman_4" data-name="Woman 4"><path d="M128.8,130.1c-5.1.7-9.1,4.3-14.4,2.5a8.2,8.2,0,0,1-4.3-11.3c-1.9,1.1-4.3-.4-5.2-2.2s-.2-5.5.6-8c-3.5,1-7.9.4-10.4-2.6s-2.4-7,.3-9.3c-3.1,3.1-5.8-3.2-5.5-5.5s3.2-6.7,6.7-6.8c-3.1-2.8-3.2-7.5-3-11.4s3.1-6,7.7-5.5c-3.6-3.5-5.5-9.7-2.5-14.1s7.9-5,12.1-4.2c-3-3.2-2.2-8.4.4-11.5s8.4-5.1,13.1-5.2c-1.9-2.7-.1-6.5,2.3-8.3s7.6-1.9,11.2-1.4c.1-9,12.6-12.1,17-4.2.7-4.4,4.9-9.2,9.7-9.2s7.1,7.4,7.3,12c2.9-3.2,8.8-7.5,13.5-6.5s2.5,8,3.6,11.8c6-7.1,16.9,2.9,10.2,9.5,4.1-2.1,10.2-1.7,13.4,2s2.6,8.6-1.1,10.7c4.8-2.7,9.6,3.1,10.3,7.3A10.3,10.3,0,0,1,215,70.1a9.2,9.2,0,0,1,7.3,9.9c-.5,5.4-5.1,10.4-7.9,14.8,4.3.9,6,6.3,4.9,10.2s-6.3,7.5-10.8,8.8c4,.6,4.2,5.7,2.1,8.2s-7.7,3.2-11.7,2.7c4.7.1,3.4,6.1,1.9,8.6s-5,6.5-8.7,7.3-12.4-.1-14-4c-2.3,4.9-11.2-1-14.5-1.8s-3.2-.6-3.4,1.7,1.4,4,.7,5.1-4.9-1-6.3-1.2c-3.8-.6-7.7-.2-11.4-1.4C137.8,137.2,134.9,129.3,128.8,130.1Z" fill="#291d29"/><path d="M176.5,181.3c-9.1,5.3-19.5,16.4-31.1,13.1S125,180.6,117,173c-3.9-3.7-5.5-5.2-.2-8.1s9.6-6,12.9-11.4c6.9-11.2,10.1-25.3,10.3-38.3-.1,2.7,7.9,7.1,9.9,8.8a80.8,80.8,0,0,0,10.8,7.6c3.7,2,7.8,2.5,8.2,6.8.3,2.6-1.3,6.2-1.3,9a20.4,20.4,0,0,0,1.9,9.1c3.5,6.8,9.7,14.3,14.9,20C181.7,177.9,179.2,179.7,176.5,181.3Z" fill="#bf6351"/><path d="M193.5,239.3a13,13,0,0,1-4.5,3.5l-6.8,3.6a140.7,140.7,0,0,1-18,7.2,2.9,2.9,0,0,1-2,.3c-1.7-.6-1.5-3-1-4.6A220.6,220.6,0,0,1,179,206.4c1.7-3.2,3.4-6.6,4.9-8s3.2-.7,4.6,4.9l.6,2.8a16,16,0,0,1,.5,2.1c1.6,6.4,3.1,12.7,4.6,19.1C195.1,231.4,196,236,193.5,239.3Z" fill="none" stroke="#bf6351" stroke-miterlimit="10" stroke-width="1.18"/><path d="M91.4,246.1h0V246Z" fill="none"/><path d="M91.4,246v.2a112.8,112.8,0,0,0,89,9.2c2.4-12.2,4.8-24.3,7.1-36.5.7-3.5.9-7.4,2.1-10.7s1.6-1.4,3.8-1.6l7.2-.6c-2-5.2-1-9-3-14.2a38.2,38.2,0,0,0-10.9-14.3,55.2,55.2,0,0,1-6.3-5.5c-1.1-1.1-1.9-3-3.2-3.5s-5.6-.4-7.8-.5l-41.2-2.5c-4.4-.2-9.3-1.5-13.4.1-6.4,2.6-18.9,6.4-25.1,9.5-8.8,4.4-9.6,15.2-11.9,23.3s-9.9,37.5-11.4,41.1c7.1,7.1,16.2,1.7,25,6.6Z" fill="#bf6351"/><path d="M176.1,177.8a15.1,15.1,0,0,0-12.6,20.1l30.7,85.6a27.1,27.1,0,0,0,21.3,17.7l19.2,23.4L218.6,265l-19.5-71.9a21.1,21.1,0,0,0-22.5-15.4Z" fill="#bf6351"/><path d="M183,254.5a68.7,68.7,0,0,1,4.5-6.5c3.9-5.2,10.1-10.6,10.1-17.6s-5.1-15.6-8-22.3-6.4-13.4-8.3-20.4a36.9,36.9,0,0,1-1.2-12.4c.2-2.1.7-4.3-.3-6.1s-4.1-6.2-6.3-7.2-.8-.9-2,.3-1.8,4.6-1.8,6.6l-42.5-1.5c.1-2.3.1-8.3-2.6-8.8s-5,2.7-6.3,3.4a19.6,19.6,0,0,0-3,2c-2.1,2-.5,6.6-.5,9.4.2,6.6.6,13.2-.4,19.7-1.5,9.4-5.3,18.8-8.8,27.7-1.9,4.8-4.6,8.8-7.2,13.2s-5,7.4-6.5,11.2l-.3,1.1c9,5.1.4,39.1-3.6,54.7s-17.5,27.4-6.7,38.2c10.4,2.9,23.2,9.7,45.7,10.8,25.6,1.2,60.6-3.4,62.4-6,3.4-4.8,3.6-16.8-.4-36.2C184,283.6,179.1,255.9,183,254.5Z" fill="#ffb74d"/><g clip-path="url(#clip-path-2)"><path d="M109.9,228.8c-9.8,16-6.3,21.6-6.7,37s2,34.5,1.6,46.2c-1.2,35.5-38.4,31.5-38.4,31.5L89.9,216l18.6-34.5S114.4,221.3,109.9,228.8Z" fill="#db9d42"/><path d="M180.4,170.7a12.7,12.7,0,0,1-.2,3.4,134.2,134.2,0,0,1-33.6,4.4l-6.8-.2a120.9,120.9,0,0,1-24.9-4c-.1-1.5-.1-3-.2-4.5a113.5,113.5,0,0,0,25.3,4.3,132.2,132.2,0,0,0,40.3-4.3A2.8,2.8,0,0,1,180.4,170.7Z" fill="#fff"/><path d="M180.8,185.9a138.9,138.9,0,0,1-34.2,4.4h-6.8a111.2,111.2,0,0,1-24.5-4.2c.1-1.4-.3-3.9-.3-5.3,8.2,2.3,16.4,4.8,25,5.3a131.6,131.6,0,0,0,40.2-4.3,11.1,11.1,0,0,1,.2,1.7A18.7,18.7,0,0,0,180.8,185.9Z" fill="#fff"/><path d="M185.1,197.5a138.5,138.5,0,0,1-38.5,5.6h-6.8a119.1,119.1,0,0,1-27.3-4.7c.3-1.4.6-2.8.8-4.2a114.1,114.1,0,0,0,26.7,4.7,132.7,132.7,0,0,0,43.5-5.2l.3.8Z" fill="#fff"/><path d="M189.9,208.8a138.9,138.9,0,0,1-43.3,7.2l-6.8-.2a119.2,119.2,0,0,1-30.5-5.7.4.4,0,0,1,.1-.3c.4-1.2.8-2.5,1.1-3.7a121.1,121.1,0,0,0,29.5,5.5,134.5,134.5,0,0,0,48.3-6.7Z" fill="#fff"/><path d="M194.7,219.9a138.1,138.1,0,0,1-48.1,8.9l-6.8-.2a121.1,121.1,0,0,1-34.5-7.1l1.5-3.9a118.8,118.8,0,0,0,33.2,6.8,133.4,133.4,0,0,0,53.1-8.4l1.2,3A3.6,3.6,0,0,1,194.7,219.9Z" fill="#fff"/><path d="M197.5,231.7a141.1,141.1,0,0,1-50.9,9.8h-6.8A119.9,119.9,0,0,1,99.5,232l.5-.7,1.5-2.1.4-.8a114,114,0,0,0,38.1,8.8,134,134,0,0,0,57.2-10,6.9,6.9,0,0,1,.2,1.3A11.6,11.6,0,0,1,197.5,231.7Z" fill="#fff"/><path d="M192.2,242c-1.6,1.9-3.2,3.9-4.7,6a138.8,138.8,0,0,1-40.9,6.3h-6.8a118,118,0,0,1-46.1-12.1l2.1-3.6A116.1,116.1,0,0,0,140,250,135.6,135.6,0,0,0,192.2,242Z" fill="#fff"/><path d="M181.7,258.2a35.3,35.3,0,0,0,0,4.6c-13.6,4.3-21.6,4.6-35.1,4.6l-6.8-.2a118,118,0,0,1-46.1-12.1l1.1-3.6A121.1,121.1,0,0,0,140,263C157.2,263.9,164.5,264.4,181.7,258.2Z" fill="#fff"/><path d="M182.5,270.4a23.2,23.2,0,0,0,.6,4.5c-13.5,4.2-25.3,5.5-38.9,5.5l-6.8-.2c-16.2-.9-34.7-6.4-48.7-13.4l1.9-3.7c13.5,6.6,31.5,12.1,47,12.9C154.9,276.9,165.3,276.6,182.5,270.4Z" fill="#fff"/><path d="M188.2,281l-4.7,6a137.9,137.9,0,0,1-40.9,6.4l-6.8-.2a118.9,118.9,0,0,1-46.1-12.1l2.2-3.6A113.9,113.9,0,0,0,136.1,289,133.3,133.3,0,0,0,188.2,281Z" fill="#fff"/><path d="M181.9,294l-4.7,6a137.9,137.9,0,0,1-40.9,6.4l-6.8-.2a118.9,118.9,0,0,1-46.1-12.1l2.2-3.6A112.2,112.2,0,0,0,129.8,302,133.3,133.3,0,0,0,181.9,294Z" fill="#fff"/></g><path d="M170.1,162c-.6,10.2,3.8,37.3-11.4,41.1s-27.8-2.3-31.3-23.8a142.2,142.2,0,0,1-.8-19.6Z" fill="#bf6351"/><path d="M169,155.5a45.4,45.4,0,0,1-6.6-1.6c-6.7-2.1-13.1-6.3-16.2-12.6-.8-1.6-3.6-7.6-2.1-8.8s7.9.7,9.7,1.3c4.8,1.7,8.9,4.9,12.8,8.2l1.3,1.1c0,.3-.1.6-.1.9-.4,3.7-.3,7.7.8,10.6A3.6,3.6,0,0,0,169,155.5Z" fill="#291d29" opacity=".3"/><path d="M129.3,99.9c4.8,19,17.1,53.4,43.2,44.7a15.2,15.2,0,0,0,8-6.1c1.8-2.5,2.6-5.5,3.6-8.5s1-3.2,1.6-4.8a64.4,64.4,0,0,0,3.9-14.3,93.4,93.4,0,0,0,1.9-15.8v-.2c-6.5-26.8-46.5-34.8-46.5-34.8L127.5,92C126.9,93.3,128.9,98.6,129.3,99.9Z" fill="#bf6351"/><path d="M164.4,88.5s-10.6-1.1-15.3,2C149.1,90.6,154.7,81.7,164.4,88.5Z" fill="#291d29"/><path d="M190.7,90.9s-10.3-3.1-15.4-1C175.3,89.9,182.5,82.4,190.7,90.9Z" fill="#291d29"/><path d="M169.1,131.7h.5a5.6,5.6,0,0,0,5.7-5.3v-1l-11.6-.4v1A5.6,5.6,0,0,0,169.1,131.7Z" fill="#fff"/><path d="M196.1,96.6c.5,4.6-5.4,4.7-8.1,3.5-4.3-1.8-7.6-7.1-10.4-10.7-6-7.6-12.5-16.7-22.7-18.8.2,5.3-4.1,9.8-7.4,13.4s-10,7.7-9.9,13.4,3.7,11,3.9,16.7a41,41,0,0,1-3.4,17.6c-3.6-8.9-13.1-14.3-18.9-21.5a43.4,43.4,0,0,1-9.3-24.6c-.7-17.7,11.7-34.9,30.6-34.3,4.9.1,8.1.3,13.1-.8a38.9,38.9,0,0,1,14.4-.7,37.9,37.9,0,0,1,24.6,14.3c14,18.7,6,41.1-5.9,58.4,2.3-7.1,1.1-14.8,3.9-21.8Z" fill="#291d29"/><circle cx="132.7" cy="110.1" r="2.1" transform="translate(17.8 238.6) rotate(-87.9)" fill="#fff"/><path d="M153.7,59.9A11.7,11.7,0,0,1,160,58a12.1,12.1,0,0,1,6.7,1.9,19.1,19.1,0,0,1,5.1,4.7,31.9,31.9,0,0,1,3.6,5.7c2,4,3.5,8,5.7,11.6s5.2,6.7,9.5,8.1a13.1,13.1,0,0,1-6.4-2.1,19.9,19.9,0,0,1-5-4.6c-2.7-3.6-4.5-7.8-6.4-11.5a32.4,32.4,0,0,0-3.3-5.4,19.6,19.6,0,0,0-4.2-4.4,12,12,0,0,0-5.4-2.4A11,11,0,0,0,153.7,59.9Z" fill="#fff" opacity=".1"/><path d="M150.8,63.2a2,2,0,0,0-2.9,1.1c-.1.4-.1.8-.2,1.2s.3,1.6.4,2.6a15.3,15.3,0,0,1,.3,3,19.3,19.3,0,0,1-3.8,11.4,18.6,18.6,0,0,1-4.3,4.1l-4.5,3.2a13.4,13.4,0,0,0-3.6,3.9,8.2,8.2,0,0,0-1.4,5.1,8,8,0,0,1,.1-5.9,13.6,13.6,0,0,1,3.4-4.9c2.8-2.8,5.9-4.7,8-7.5a20.5,20.5,0,0,0,3.9-9.5,24.5,24.5,0,0,0,.2-2.7,15.8,15.8,0,0,1,.1-3,5.3,5.3,0,0,1,.5-1.5,2.1,2.1,0,0,1,1.2-1.1,2.2,2.2,0,0,1,1.6-.3A1.3,1.3,0,0,1,150.8,63.2Z" fill="#fff" opacity=".1"/><path d="M173.3,105.1c.4,2.6,1.4,5.2,2,7.8a3.1,3.1,0,0,1-.1,2.5c-.7,1.5-2.5,1.6-4.1,1.5s-3.6-.2-5.1.2" fill="none" stroke="#291d29" stroke-miterlimit="10" stroke-width=".75"/><path d="M197.1,97.5V96.4a.6.6,0,0,0-.5-.6l-1.6-.3-2.7-.4h-2.2a28.7,28.7,0,0,0-4.1-.1h-4.2a21.3,21.3,0,0,0-2.5.3l-1.5.2-2.5.7-2.7.8a6.8,6.8,0,0,1-2.8.2,4,4,0,0,1-1.5-.3L165,95.7l-2.6-.5-2.6-.3h-.9c-1.3,0-2.6-.2-3.9-.1s-3.7.1-5.5.3h-1.9l-3.1.5h-.4c-.2,0-.3.2-.4.4a24.4,24.4,0,0,0-.1,2.7,1,1,0,0,0,.6,1,1.9,1.9,0,0,1,.9,1.2c.3,1.1.5,2.2.8,3.2s.3,1.3.4,1.9a7.4,7.4,0,0,1,.4,1.4,15.5,15.5,0,0,0,1.4,2.9,4.1,4.1,0,0,0,2.2,1.7,10.2,10.2,0,0,0,2.5.6,19.7,19.7,0,0,0,4.2.1,12.6,12.6,0,0,0,2.8-.4,9.7,9.7,0,0,0,5.4-3.2,17.4,17.4,0,0,0,1.1-1.8l.5-1a16.9,16.9,0,0,0,1.3-3.1l.8-2.1a1.8,1.8,0,0,1,2.1-.9c.8.1,1.1.7,1.3,1.3a30.1,30.1,0,0,0,1.1,3.2,15.3,15.3,0,0,0,2.5,4.5l.9.9a7,7,0,0,0,3.2,1.9,11.8,11.8,0,0,0,2.7.6,14,14,0,0,0,4.1.2h1.5l1-.2h0a8.5,8.5,0,0,0,1.7-.6,5.2,5.2,0,0,0,2.2-2.2,13.6,13.6,0,0,0,1.1-2.8c.3-1.2.5-2.3.7-3.4a22.9,22.9,0,0,1,.9-2.8,1.5,1.5,0,0,1,.9-1,.9.9,0,0,0,.4-.8A7.6,7.6,0,0,0,197.1,97.5Zm-50.5.1h0Zm18.9,6.8a13.1,13.1,0,0,1-1.2,2.7l-1.3,1.8a5.2,5.2,0,0,1-1.9,1.4,9.6,9.6,0,0,1-2.9.8h-1.8a12.3,12.3,0,0,1-4.7-.4,3.7,3.7,0,0,1-2-1.5,7.5,7.5,0,0,1-1-2l-.3-1.2a13.8,13.8,0,0,1-.3-2,10.9,10.9,0,0,1-.1-1.8v-1.6a4.1,4.1,0,0,1,.5-1.9c.2-.3.3-.7.7-.9a3.1,3.1,0,0,1,1.3-.6l2.6-.5,3.1-.2h1.5a26,26,0,0,1,3.9.5l2.6.7a2.3,2.3,0,0,1,1.7,1.6,5.5,5.5,0,0,1,.2,1.8A16.5,16.5,0,0,1,165.5,104.4Zm26.9,1.6a11.4,11.4,0,0,1-.9,3,3.5,3.5,0,0,1-1.9,1.9l-.9.3h-.2a16.2,16.2,0,0,1-3.2.2h-2.2l-2.4-.6a3.1,3.1,0,0,1-1.3-.6,5.2,5.2,0,0,1-1.7-1.6,14.3,14.3,0,0,1-2.6-5.9,12.2,12.2,0,0,1-.1-2.7,3.6,3.6,0,0,1,.4-1.1,3.4,3.4,0,0,1,1.8-1.3,11.4,11.4,0,0,1,2.5-.6l3.7-.3h0a23.3,23.3,0,0,1,4.6.2l2.6.6.8.3h0a2.7,2.7,0,0,1,1,1.1v.3h0l.3,1.3h0v.8A17.5,17.5,0,0,1,192.4,106Z" fill="#fcc11a"/><ellipse cx="158.5" cy="102.6" rx="1.8" ry="2.4" transform="translate(-8.9 15.4) rotate(-5.4)"/><ellipse cx="180.3" cy="103.4" rx="1.8" ry="2.4" transform="translate(-8.9 17.4) rotate(-5.4)"/><polygon points="144.1 95.7 137.5 95.9 137.4 99.3 144.2 99.8 144.1 95.7" fill="#fcc11a"/><path d="M134.1,331.5,90.5,275.1c-1.3-1.6-2.3-2.5-2.4-4.3-.1-3.5,3.4-9.4,4.6-12.7l15.5-42.3c4-11,10.5-23.1,2.1-34.1-6.1-8-18.1-10.9-25.4-2.7-2.8,3-3.6,6.8-4.6,10.6L58.7,267.3c-1.4,4.9-2.9,9.7-2.4,15C57.7,298.5,74,306.9,85.5,316c13.4,10.5,26.2,21,38.7,32.4,6.9,6.2,29.4,18.9,38.5,11.3l-11.6-11.8" fill="#bf6351"/><path d="M274.2,328.7c-.6-4.7-4-8.1-6.8-11.7a102.5,102.5,0,0,0-14.9-16,3.4,3.4,0,0,0-2.4-1.1.9.9,0,0,0-.6.3.8.8,0,0,0-.1.8c.3,3.1,2.9,5.5,4.5,8s3.5,6.5,5.9,9.1a81.8,81.8,0,0,0-11.2-12.3c-.4-.4-1-.7-1.4-.5a1.4,1.4,0,0,0-.4,1.1,7.9,7.9,0,0,0,1.6,4.3,36.6,36.6,0,0,1,2.6,4.2c1.8,3.3,3.4,6.9,5.6,9.9l-3.5-4.8a32.7,32.7,0,0,0-6.9-7.9c-.4-.4-1.1-.7-1.5-.3a.8.8,0,0,0-.2.5c-.4,1.5.3,3,1,4.3,2.6,4.7,6.2,8.8,8.6,13.6a67.4,67.4,0,0,0-8.4-10c-.6-.6-1.5-1.2-2.3-.9a1.6,1.6,0,0,0-.8,1.4,4.8,4.8,0,0,0,.5,1.7c2.5,6.1,5.1,12.2,7.7,18.3a13.7,13.7,0,0,0,7.4,6.6c8.2,3.4,14.4-5.6,15.6-12.5A22.2,22.2,0,0,0,274.2,328.7Z" fill="#bf6351"/></g></g></g><g id="Rulers"><path d="M220.7,0C253.5,48.8,275,121.2,275,164a125,125,0,0,1-250,0C25,121.2,46.5,48.8,79.3,0H0V300H300V0Z" fill="#fff"/></g></svg>